<svg xmlns="http://www.w3.org/2000/svg" width="800" height="500" viewBox="0 0 800 500">
  <defs>
    <linearGradient id="bg2" x1="0%" y1="0%" x2="100%" y2="100%">
      <stop offset="0%" style="stop-color:#52b788"/>
      <stop offset="100%" style="stop-color:#2d6a4f"/>
    </linearGradient>
  </defs>
  <rect width="800" height="500" fill="url(#bg2)"/>
  <rect x="50" y="350" width="700" height="120" rx="10" fill="rgba(255,255,255,0.15)"/>
  
    <circle cx="150" cy="250" r="55" fill="rgba(255,255,255,0.2)" stroke="white" stroke-width="2"/>
    <circle cx="150" cy="235" r="18" fill="rgba(255,255,255,0.6)"/>
    <ellipse cx="150" cy="275" rx="22" ry="15" fill="rgba(255,255,255,0.5)"/>
    <rect x="115" y="370" width="70" height="12" rx="6" fill="rgba(255,255,255,0.4)"/>
    <rect x="125" y="390" width="50" height="8" rx="4" fill="rgba(255,255,255,0.25)"/>
  
    <circle cx="280" cy="250" r="55" fill="rgba(255,255,255,0.2)" stroke="white" stroke-width="2"/>
    <circle cx="280" cy="235" r="18" fill="rgba(255,255,255,0.6)"/>
    <ellipse cx="280" cy="275" rx="22" ry="15" fill="rgba(255,255,255,0.5)"/>
    <rect x="245" y="370" width="70" height="12" rx="6" fill="rgba(255,255,255,0.4)"/>
    <rect x="255" y="390" width="50" height="8" rx="4" fill="rgba(255,255,255,0.25)"/>
  
    <circle cx="410" cy="250" r="55" fill="rgba(255,255,255,0.2)" stroke="white" stroke-width="2"/>
    <circle cx="410" cy="235" r="18" fill="rgba(255,255,255,0.6)"/>
    <ellipse cx="410" cy="275" rx="22" ry="15" fill="rgba(255,255,255,0.5)"/>
    <rect x="375" y="370" width="70" height="12" rx="6" fill="rgba(255,255,255,0.4)"/>
    <rect x="385" y="390" width="50" height="8" rx="4" fill="rgba(255,255,255,0.25)"/>
  
    <circle cx="540" cy="250" r="55" fill="rgba(255,255,255,0.2)" stroke="white" stroke-width="2"/>
    <circle cx="540" cy="235" r="18" fill="rgba(255,255,255,0.6)"/>
    <ellipse cx="540" cy="275" rx="22" ry="15" fill="rgba(255,255,255,0.5)"/>
    <rect x="505" y="370" width="70" height="12" rx="6" fill="rgba(255,255,255,0.4)"/>
    <rect x="515" y="390" width="50" height="8" rx="4" fill="rgba(255,255,255,0.25)"/>
  
  <text x="400" y="460" text-anchor="middle" font-family="Arial,sans-serif" font-weight="bold" font-size="22" fill="white">Tim Profesional Kami</text>
</svg>